<svg width="25" height="24" viewBox="0 0 25 24" fill="none" xmlns="http://www.w3.org/2000/svg">
<path d="M10.2633 12.99C10.3633 12.99 12.6833 13.09 14.0633 12.75H14.0733C15.6633 12.36 17.8733 11.24 18.4433 7.58C18.4433 7.58 19.7133 3 13.4133 3H8.00329C7.51329 3 7.09329 3.36 7.01329 3.84L4.71329 18.4C4.66329 18.7 4.90329 18.98 5.20329 18.98H8.63329L9.47329 13.66C9.53329 13.28 9.86329 12.99 10.2633 12.99Z" fill="white"/>
<path d="M19.3233 8.29004C18.5133 12.02 15.9633 13.99 11.9033 13.99H10.4333L9.4033 20.51C9.3633 20.77 9.5633 21 9.8233 21H11.7233C12.0633 21 12.3633 20.75 12.4133 20.41C12.4933 20.01 12.9333 17.09 13.0233 16.59C13.0733 16.25 13.3733 16 13.7133 16H14.1533C16.9733 16 19.1833 14.85 19.8333 11.54C20.0933 10.2 19.9533 9.10004 19.3233 8.29004Z" fill="white"/>
</svg>
