<svg width="48" height="48" viewBox="0 0 48 48" fill="none" xmlns="http://www.w3.org/2000/svg">
<path fill-rule="evenodd" clip-rule="evenodd" d="M5 12.182L14.44 21.622L24 12.062L33.562 21.622L43 12.184V29.938C43 31.5293 42.3679 33.0554 41.2426 34.1807C40.1174 35.3059 38.5913 35.938 37 35.938H11C9.4087 35.938 7.88258 35.3059 6.75736 34.1807C5.63214 33.0554 5 31.5293 5 29.938V12.182ZM39 21.818V29.938C39 30.4684 38.7893 30.9772 38.4142 31.3522C38.0391 31.7273 37.5304 31.938 37 31.938H11C10.4696 31.938 9.96086 31.7273 9.58579 31.3522C9.21071 30.9772 9 30.4684 9 29.938V21.816L14.44 27.256L24 17.696L33.562 27.256L39 21.816V21.818Z" fill="#E1090A"/>
</svg>
