<svg width="48" height="48" viewBox="0 0 48 48" fill="none" xmlns="http://www.w3.org/2000/svg">
<path fill-rule="evenodd" clip-rule="evenodd" d="M32 24C32 26.1217 31.1571 28.1566 29.6569 29.6569C28.1566 31.1571 26.1217 32 24 32C21.8783 32 19.8434 31.1571 18.3431 29.6569C16.8429 28.1566 16 26.1217 16 24C16 21.8783 16.8429 19.8434 18.3431 18.3431C19.8434 16.8429 21.8783 16 24 16C26.1217 16 28.1566 16.8429 29.6569 18.3431C31.1571 19.8434 32 21.8783 32 24ZM28 24C28 25.0609 27.5786 26.0783 26.8284 26.8284C26.0783 27.5786 25.0609 28 24 28C22.9391 28 21.9217 27.5786 21.1716 26.8284C20.4214 26.0783 20 25.0609 20 24C20 22.9391 20.4214 21.9217 21.1716 21.1716C21.9217 20.4214 22.9391 20 24 20C25.0609 20 26.0783 20.4214 26.8284 21.1716C27.5786 21.9217 28 22.9391 28 24Z" fill="#E1090A"/>
<path fill-rule="evenodd" clip-rule="evenodd" d="M24 6C35.184 6 44.58 13.648 47.244 24C44.58 34.352 35.184 42 24 42C12.816 42 3.42001 34.352 0.756012 24C3.42001 13.648 12.816 6 24 6ZM24 38C15.048 38 7.46201 32.116 4.91401 24C7.46201 15.884 15.048 10 24 10C32.952 10 40.538 15.884 43.086 24C40.538 32.116 32.952 38 24 38Z" fill="#E1090A"/>
</svg>
