<svg width="32" height="32" viewBox="0 0 32 32" fill="none" xmlns="http://www.w3.org/2000/svg">
<path d="M2.66663 16C2.66663 10.972 2.66663 8.45731 4.22929 6.89598C5.79063 5.33331 8.30529 5.33331 13.3333 5.33331H18.6666C23.6946 5.33331 26.2093 5.33331 27.7706 6.89598C29.3333 8.45731 29.3333 10.972 29.3333 16V18.6666C29.3333 23.6946 29.3333 26.2093 27.7706 27.7706C26.2093 29.3333 23.6946 29.3333 18.6666 29.3333H13.3333C8.30529 29.3333 5.79063 29.3333 4.22929 27.7706C2.66663 26.2093 2.66663 23.6946 2.66663 18.6666V16Z" stroke="#CE331C" stroke-width="1.5"/>
<path d="M9.33325 5.33331V3.33331M22.6666 5.33331V3.33331" stroke="#CE331C" stroke-width="1.5" stroke-linecap="round"/>
<path d="M22 24C23.1046 24 24 23.1046 24 22C24 20.8954 23.1046 20 22 20C20.8954 20 20 20.8954 20 22C20 23.1046 20.8954 24 22 24Z" stroke="#CE331C" stroke-width="1.5"/>
<path d="M3.33325 12H28.6666" stroke="#CE331C" stroke-width="1.5" stroke-linecap="round"/>
</svg>
